<svg width="23" height="21" viewBox="0 0 23 21" fill="none" xmlns="http://www.w3.org/2000/svg">
<path d="M1.375 10.5L3.625 8.58333M3.625 8.58333L11.5 1.875L19.375 8.58333M3.625 8.58333V18.1667C3.625 18.4208 3.74353 18.6646 3.95451 18.8443C4.16548 19.024 4.45163 19.125 4.75 19.125H8.125M19.375 8.58333L21.625 10.5M19.375 8.58333V18.1667C19.375 18.4208 19.2565 18.6646 19.0455 18.8443C18.8345 19.024 18.5484 19.125 18.25 19.125H14.875M8.125 19.125C8.42337 19.125 8.70952 19.024 8.92049 18.8443C9.13147 18.6646 9.25 18.4208 9.25 18.1667V14.3333C9.25 14.0792 9.36853 13.8354 9.57951 13.6557C9.79048 13.476 10.0766 13.375 10.375 13.375H12.625C12.9234 13.375 13.2095 13.476 13.4205 13.6557C13.6315 13.8354 13.75 14.0792 13.75 14.3333V18.1667C13.75 18.4208 13.8685 18.6646 14.0795 18.8443C14.2905 19.024 14.5766 19.125 14.875 19.125M8.125 19.125H14.875" stroke="black" stroke-width="2" stroke-linecap="round" stroke-linejoin="round"/>
</svg>
