<svg width="20" height="20" viewBox="0 0 20 20" fill="none" xmlns="http://www.w3.org/2000/svg">
<path d="M8 4H3C2.46957 4 1.96086 4.21071 1.58579 4.58578C1.21071 4.96086 1 5.46957 1 6V17C1 17.5304 1.21071 18.0391 1.58579 18.4142C1.96086 18.7893 2.46957 19 3 19H14C14.5304 19 15.0391 18.7893 15.4142 18.4142C15.7893 18.0391 16 17.5304 16 17V12M14.586 2.586C14.7705 2.39498 14.9912 2.24261 15.2352 2.1378C15.4792 2.03298 15.7416 1.97781 16.0072 1.9755C16.2728 1.97319 16.5361 2.02379 16.7819 2.12436C17.0277 2.22492 17.251 2.37342 17.4388 2.56121C17.6266 2.74899 17.7751 2.9723 17.8756 3.21809C17.9762 3.46388 18.0268 3.72724 18.0245 3.9928C18.0222 4.25836 17.967 4.5208 17.8622 4.76481C17.7574 5.00882 17.605 5.2295 17.414 5.414L8.828 14H6V11.172L14.586 2.586Z" stroke="black" stroke-width="2" stroke-linecap="round" stroke-linejoin="round"/>
</svg>
