<svg width="22" height="21" viewBox="0 0 22 21" fill="none" xmlns="http://www.w3.org/2000/svg">
<path d="M11.6571 14.446H10.6066V10.3345H9.55603M10.6066 6.22299H10.6171M20.0615 10.3345C20.0615 11.5493 19.8169 12.7523 19.3418 13.8746C18.8666 14.997 18.1702 16.0168 17.2922 16.8758C16.4142 17.7349 15.3719 18.4163 14.2248 18.8812C13.0777 19.3461 11.8482 19.5854 10.6066 19.5854C9.36494 19.5854 8.13545 19.3461 6.98833 18.8812C5.8412 18.4163 4.7989 17.7349 3.92093 16.8758C3.04296 16.0168 2.34651 14.997 1.87136 13.8746C1.3962 12.7523 1.15164 11.5493 1.15164 10.3345C1.15164 7.881 2.14778 5.52801 3.92093 3.79314C5.69407 2.05826 8.09897 1.08362 10.6066 1.08362C13.1142 1.08362 15.5191 2.05826 17.2922 3.79314C19.0654 5.52801 20.0615 7.881 20.0615 10.3345Z" stroke="black" stroke-width="2" stroke-linecap="round" stroke-linejoin="round"/>
</svg>
