<svg width="35" height="21" viewBox="0 0 35 21" fill="none" xmlns="http://www.w3.org/2000/svg">
<path fill-rule="evenodd" clip-rule="evenodd" d="M22.7937 14.5439L27.152 13.8166L24.4042 10.1689C22.9807 11.4362 22.8025 12.9614 22.7937 14.5439ZM21.5947 14.8106C21.5947 14.6541 21.5617 14.3985 21.5617 14.2221C21.5389 13.2827 21.7163 12.3491 22.082 11.4837C22.4477 10.6184 22.9933 9.841 23.6825 9.2035L22.0699 7.21985L19.5706 15.0222L21.5947 14.8106ZM12.0003 7.05234L12.1389 6.61153L21.0403 6.59831L18.6752 13.9466L18.5718 13.1818H18.8446L18.8204 12.6947H17.6192L17.6522 13.1355H17.9602L18.0284 13.9709C18.0284 13.9709 12.0377 7.08761 12.0003 7.05234ZM8.05997 14.1053C9.2546 13.1355 10.1852 12.2098 10.8562 10.3584C11.3832 10.8543 11.803 11.4532 12.0895 12.1182C12.3759 12.7832 12.523 13.5001 12.5217 14.2243C12.5217 17.1271 10.205 19.4942 7.36695 19.4942C4.52888 19.4942 2.21003 17.1227 2.21003 14.2243C2.21003 11.326 4.52008 8.95004 7.36475 8.95004C8.27285 8.95466 9.16316 9.20276 9.94321 9.66856C9.4372 11.3018 8.94659 12.1437 7.39115 13.4155C7.20677 13.4178 7.03087 13.4934 6.90214 13.6257C6.77341 13.758 6.7024 13.936 6.70474 14.1208C6.70707 14.3055 6.78255 14.4817 6.91458 14.6107C7.04661 14.7396 7.22437 14.8108 7.40875 14.8084C7.49744 14.807 7.58497 14.788 7.66627 14.7524C7.74758 14.7169 7.82104 14.6656 7.88242 14.6014C7.9438 14.5373 7.99187 14.4616 8.02386 14.3787C8.05584 14.2958 8.07111 14.2074 8.06877 14.1186L8.05997 14.1053ZM22.9741 15.668C23.271 16.7593 23.9157 17.7236 24.8101 18.4139C25.7045 19.1042 26.7996 19.4828 27.9286 19.492C30.7667 19.492 33.0834 17.1249 33.0834 14.2199C33.0834 11.315 30.7667 8.95004 27.9286 8.95004C26.9765 8.93799 26.0372 9.17098 25.2006 9.62668L27.999 13.4243C28.1742 13.4425 28.336 13.5265 28.4519 13.6593C28.5678 13.7921 28.6293 13.9639 28.624 14.1402C28.6187 14.3165 28.547 14.4843 28.4234 14.6099C28.2997 14.7355 28.1332 14.8096 27.9572 14.8172C27.852 14.8154 27.7484 14.7906 27.6536 14.7445L22.9741 15.668ZM10.315 8.44751L12.1411 3.29663L11.5603 2.28717L12.7197 1H15.2035L15.2365 1.73175H13.0585L12.6185 2.21884L13.1289 3.15777L12.4865 5.48526H21.4033L21.5397 5.05987C20.8225 4.9629 19.586 4.51327 19.2912 4.25099C18.9964 3.9887 19.2604 3.74626 19.5904 3.73524C21.3505 3.65809 23.9641 3.51483 24.4614 3.51483C24.9586 3.51483 25.0092 3.7683 24.6814 4.14078C24.3536 4.51327 24.0588 4.84608 22.7981 5.04665L22.4571 5.98558L24.567 8.6591C25.5822 8.04374 26.7464 7.71899 27.933 7.72017C31.4399 7.72017 34.3 10.645 34.3 14.231C34.3 17.817 31.4399 20.7395 27.933 20.7395C25.0488 20.7395 22.5121 18.7052 21.7729 15.8906L19.8324 16.2455C19.7325 16.4828 19.5537 16.6782 19.3264 16.7987L19.6718 18.476H20.1119L20.1405 18.9256L18.7456 18.9939V18.5068H19.0844L18.662 16.8317C18.4234 16.8094 18.2034 16.6931 18.0504 16.5084C17.8974 16.3236 17.8238 16.0856 17.8458 15.8465C17.8517 15.7714 17.8673 15.6973 17.892 15.6261L11.5603 8.30645L11.2742 9.0911C12.0383 9.71048 12.6553 10.4925 13.0803 11.3803C13.5054 12.2682 13.7279 13.2397 13.7317 14.2243C13.7317 17.8103 10.8716 20.7351 7.36475 20.7351C3.85787 20.7351 1 17.8059 1 14.2243C1 10.6428 3.86007 7.71136 7.36695 7.71136C8.3945 7.70945 9.40655 7.96235 10.3128 8.44751H10.315Z" fill="white" stroke="white" stroke-width="0.5"/>
</svg>
