<svg width="17" height="17" viewBox="0 0 17 17" fill="none" xmlns="http://www.w3.org/2000/svg">
<path d="M15.625 9.6875C15.4151 9.6875 15.2137 9.77091 15.0652 9.91938C14.9168 10.0678 14.8334 10.2692 14.8334 10.4792V13.6458C14.8334 13.8558 14.75 14.0572 14.6015 14.2056C14.453 14.3541 14.2517 14.4375 14.0417 14.4375H2.95837C2.74841 14.4375 2.54705 14.3541 2.39858 14.2056C2.25012 14.0572 2.16671 13.8558 2.16671 13.6458V6.05375L6.82171 10.7088C7.26702 11.1535 7.87066 11.4033 8.50004 11.4033C9.12942 11.4033 9.73306 11.1535 10.1784 10.7088L13.0205 7.87459C13.1695 7.72551 13.2533 7.52332 13.2533 7.3125C13.2533 7.10168 13.1695 6.89949 13.0205 6.75042C12.8714 6.60135 12.6692 6.5176 12.4584 6.5176C12.2476 6.5176 12.0454 6.60135 11.8963 6.75042L9.06212 9.5925C8.98853 9.6667 8.90097 9.7256 8.8045 9.76579C8.70803 9.80598 8.60455 9.82668 8.50004 9.82668C8.39553 9.82668 8.29206 9.80598 8.19558 9.76579C8.09911 9.7256 8.01155 9.6667 7.93796 9.5925L3.28296 4.9375H12.4584C12.6683 4.9375 12.8697 4.85409 13.0182 4.70563C13.1666 4.55716 13.25 4.3558 13.25 4.14584C13.25 3.93587 13.1666 3.73451 13.0182 3.58604C12.8697 3.43758 12.6683 3.35417 12.4584 3.35417H2.95837C2.32848 3.35417 1.72439 3.60439 1.279 4.04979C0.833597 4.49519 0.583374 5.09928 0.583374 5.72917V13.6458C0.583374 14.2757 0.833597 14.8798 1.279 15.3252C1.72439 15.7706 2.32848 16.0208 2.95837 16.0208H14.0417C14.6716 16.0208 15.2757 15.7706 15.7211 15.3252C16.1665 14.8798 16.4167 14.2757 16.4167 13.6458V10.4792C16.4167 10.2692 16.3333 10.0678 16.1848 9.91938C16.0364 9.77091 15.835 9.6875 15.625 9.6875ZM15.625 2.5625C15.8346 2.55959 16.0354 2.47758 16.1871 2.33292L16.2821 2.20625C16.3135 2.16584 16.3376 2.1203 16.3534 2.07167C16.3817 2.02772 16.4031 1.97965 16.4167 1.92917C16.4206 1.87646 16.4206 1.82354 16.4167 1.77084C16.4138 1.56123 16.3318 1.36046 16.1871 1.20875C16.1135 1.13455 16.026 1.07566 15.9295 1.03546C15.833 0.995272 15.7296 0.974579 15.625 0.974579C15.5205 0.974579 15.4171 0.995272 15.3206 1.03546C15.2241 1.07566 15.1366 1.13455 15.063 1.20875C14.9888 1.28235 14.9299 1.36991 14.8897 1.46638C14.8495 1.56285 14.8288 1.66633 14.8288 1.77084C14.8288 1.87535 14.8495 1.97882 14.8897 2.07529C14.9299 2.17176 14.9888 2.25932 15.063 2.33292C15.2147 2.47758 15.4154 2.55959 15.625 2.5625ZM15.625 3.35417C15.4151 3.35417 15.2137 3.43758 15.0652 3.58604C14.9168 3.73451 14.8334 3.93587 14.8334 4.14584V7.3125C14.8334 7.52247 14.9168 7.72383 15.0652 7.87229C15.2137 8.02076 15.4151 8.10417 15.625 8.10417C15.835 8.10417 16.0364 8.02076 16.1848 7.87229C16.3333 7.72383 16.4167 7.52247 16.4167 7.3125V4.14584C16.4167 3.93587 16.3333 3.73451 16.1848 3.58604C16.0364 3.43758 15.835 3.35417 15.625 3.35417Z" fill="white"/>
</svg>
