<svg width="24" height="31" viewBox="0 0 24 31" fill="none" xmlns="http://www.w3.org/2000/svg">
<path d="M7.5 4.70833H4.5C3.70435 4.70833 2.94129 5.03318 2.37868 5.61142C1.81607 6.18966 1.5 6.97392 1.5 7.79167V26.2917C1.5 27.1094 1.81607 27.8937 2.37868 28.4719C2.94129 29.0501 3.70435 29.375 4.5 29.375H19.5C20.2956 29.375 21.0587 29.0501 21.6213 28.4719C22.1839 27.8937 22.5 27.1094 22.5 26.2917V7.79167C22.5 6.97392 22.1839 6.18966 21.6213 5.61142C21.0587 5.03318 20.2956 4.70833 19.5 4.70833H16.5M7.5 4.70833C7.5 5.52608 7.81607 6.31034 8.37868 6.88858C8.94129 7.46682 9.70435 7.79167 10.5 7.79167H13.5C14.2956 7.79167 15.0587 7.46682 15.6213 6.88858C16.1839 6.31034 16.5 5.52608 16.5 4.70833M7.5 4.70833C7.5 3.89058 7.81607 3.10632 8.37868 2.52809C8.94129 1.94985 9.70435 1.625 10.5 1.625H13.5C14.2956 1.625 15.0587 1.94985 15.6213 2.52809C16.1839 3.10632 16.5 3.89058 16.5 4.70833M12 15.5H16.5M12 21.6667H16.5M7.5 15.5H7.515M7.5 21.6667H7.515" stroke="black" stroke-width="2" stroke-linecap="round" stroke-linejoin="round"/>
</svg>
