<svg width="62" height="59" viewBox="0 0 62 59" fill="none" xmlns="http://www.w3.org/2000/svg">
<path d="M21.9539 14.0012C22.9679 13.9356 23.9687 13.8701 24.9695 13.8176C25.5621 13.7783 26.1547 13.7127 26.7342 13.7389C27.2477 13.7652 27.4584 13.6078 27.5638 13.1096C28.051 10.8937 28.986 8.82211 29.7235 6.68493C30.1712 5.41311 30.5531 4.12818 30.7506 2.77769C31.0403 0.692953 30.5926 -1.19511 29.3547 -2.91272C28.6173 -3.93542 29.144 -5.22036 30.3424 -5.44325C31.0667 -5.58748 31.6066 -5.24658 32.028 -4.66967C34.0033 -1.99492 34.5169 0.981407 33.8058 4.19374C33.2395 6.77671 32.1465 9.18924 31.3037 11.6804C31.1325 12.1787 31.0008 12.6769 30.8428 13.1751C30.7506 13.4898 30.8033 13.6472 31.1852 13.6472C33.1737 13.6996 35.1621 13.7783 37.1638 13.8569C37.414 13.8701 37.5984 13.8438 37.73 13.5554C38.4148 12.0476 39.1523 10.566 39.837 9.05812C40.2189 8.21898 40.4428 7.3274 40.3901 6.39648C40.3375 5.37378 39.9161 4.50841 39.2181 3.76105C38.428 2.92192 38.4017 2.00411 39.1128 1.33542C39.8239 0.653618 40.7852 0.771622 41.5885 1.59765C43.6823 3.77417 44.2354 6.27847 43.2609 9.12368C42.7342 10.6577 41.9835 12.0869 41.2461 13.516C40.9827 14.0405 41.0486 14.1847 41.6675 14.2503C46.3292 14.7879 50.9383 15.5483 55.2971 17.3708C56.693 17.9478 58.0099 18.6689 59.1687 19.6785C60.4593 20.8061 61.144 22.1697 61.0519 23.9266C60.4988 34.1536 55.679 41.837 47.1062 47.3176C46.5794 47.6585 46.0132 47.9601 45.4469 48.2485C45.1309 48.4059 45.0124 48.6026 45.0124 48.9566C45.0387 49.7564 44.9728 50.5693 45.0255 51.3822C45.1309 53.0474 44.3671 54.2667 43.0897 55.237C41.4173 56.5088 39.4683 57.1513 37.4403 57.5709C32.1202 58.6722 26.8395 58.5804 21.6115 56.9939C20.1761 56.5613 18.8461 55.9188 17.7004 54.9223C16.6864 54.0176 16.107 52.9294 16.1597 51.5264C16.186 50.7397 16.1333 49.953 16.1728 49.1664C16.1992 48.6681 16.028 48.4059 15.5802 48.1568C9.81235 45.0362 5.44033 40.5652 2.66173 34.5994C1.04198 31.1117 0.225514 27.4405 0.15967 23.5988C0.133333 22.2221 0.607407 21.0945 1.55556 20.1243C2.85926 18.7869 4.49218 17.9346 6.20412 17.2397C9.5358 15.8761 13.0387 15.1157 16.6074 14.6436C17.7004 14.4994 18.3457 14.1716 18.7407 13.0834C19.2412 11.6542 20.1103 10.3693 20.6634 8.94012C21.4272 6.96027 21.4272 5.12466 19.8074 3.51194C19.1621 2.86947 19.2807 1.87299 19.9391 1.28297C20.5975 0.692954 21.5062 0.706064 22.1778 1.38787C24.2584 3.44638 25.0486 5.84579 24.1663 8.71722C23.6922 10.2644 22.9416 11.6935 22.2305 13.1358C22.1383 13.4243 21.9539 13.6472 21.9539 14.0012ZM32.1465 29.5908C34.5432 29.617 38.4807 29.381 42.3918 28.8959C46.1449 28.4239 49.8584 27.7159 53.4272 26.4178C54.7177 25.9458 56.0082 25.4344 57.0749 24.5166C58.0626 23.6644 58.0757 22.8646 57.1144 21.9861C56.3111 21.2519 55.3366 20.793 54.3358 20.3996C49.8848 18.6296 45.223 17.8429 40.4823 17.3577C40.0609 17.3184 39.9951 17.4626 40.0346 17.8166C40.1399 18.8262 40.5745 19.6785 41.2724 20.4258C42.0099 21.2125 42.0099 22.1566 41.3119 22.799C40.614 23.4546 39.6922 23.389 38.9284 22.6024C37.5325 21.1732 36.637 19.5211 36.7029 17.4757C36.7161 17.1348 36.6239 17.0037 36.2815 16.9906C34.4905 16.9513 32.6864 16.9119 30.8955 16.8333C30.4082 16.8202 30.4214 17.0431 30.4872 17.3971C30.6848 18.5509 31.1325 19.5998 31.8173 20.5569C32.4362 21.4223 32.3045 22.3795 31.5407 22.917C30.7638 23.4677 29.842 23.2579 29.2099 22.3926C28.1037 20.8847 27.3926 19.2196 27.1951 17.3577C27.1556 17.0168 27.0634 16.9119 26.721 16.9382C24.9564 17.0562 23.1786 17.1611 21.414 17.2528C20.9004 17.2791 20.7951 17.5151 20.8609 17.9609C20.9926 18.9311 21.4403 19.7178 22.0988 20.4258C22.7967 21.1732 22.7967 22.1303 22.1383 22.7597C21.4535 23.4284 20.5054 23.3759 19.7547 22.6155C18.5564 21.3961 17.7004 20.0063 17.5292 18.2755C17.4897 17.8035 17.3317 17.7117 16.8708 17.8166C15.7778 18.0526 14.6716 18.1969 13.5786 18.4198C10.9185 18.9836 8.31111 19.6654 5.84856 20.8585C5.17695 21.1863 4.53169 21.5534 3.99177 22.0779C3.21481 22.8515 3.20165 23.5726 3.9786 24.3462C4.55802 24.9231 5.26914 25.3164 6.00658 25.6573C7.82387 26.5227 9.7465 27.1127 11.7086 27.5847C17.9243 29.1057 24.2453 29.5777 32.1465 29.5908ZM3.93909 28.1092C3.9786 28.3452 4.01811 28.5157 4.04444 28.6861C4.28148 30.3382 5.07161 31.61 6.38848 32.672C8.94321 34.7436 11.8008 36.1859 14.9218 37.1431C19.4782 38.546 24.1663 39.0311 28.907 39.1229C34.5037 39.2278 40.0609 38.9262 45.4864 37.3922C49.4766 36.2777 53.1375 34.5207 56.0741 31.5051C56.9959 30.5611 56.9696 29.3155 57.3778 28.0436C56.0872 28.7386 54.9416 29.2499 53.7432 29.6564C48.0017 31.61 42.0362 32.3049 36.0181 32.6458C30.1317 32.9736 24.2453 32.79 18.3852 32.0296C13.4206 31.3871 8.52181 30.4824 3.93909 28.1092ZM8.54815 38.074C14.8033 45.7705 22.9547 49.2057 32.8313 48.6419C36.7424 48.419 40.4428 47.3176 43.9062 45.4951C47.3564 43.6726 50.3062 41.2601 52.7292 38.1002C52.4 38.0609 52.2551 38.2051 52.0971 38.2969C50.3325 39.1754 48.5021 39.8703 46.6058 40.4209C42.1942 41.7059 37.651 42.191 33.0815 42.3483C29.2099 42.4795 25.3383 42.3352 21.493 41.8239C16.9893 41.2076 12.6436 40.1325 8.54815 38.074ZM19.4123 49.9268C19.4123 50.4513 19.465 50.8971 19.3992 51.3166C19.2938 52.1164 19.6889 52.5885 20.321 52.9687C21.0979 53.4276 21.9276 53.7685 22.7835 54.0307C25.944 55.0141 29.1835 55.2108 32.4626 55.0534C35.0436 54.9223 37.5852 54.4896 39.9951 53.4669C41.2724 52.9294 42.0757 52.2082 41.8387 50.6611C41.7465 50.0842 41.7465 49.9399 41.1144 50.1628C36.1235 51.8936 31.014 52.3525 25.786 51.5658C23.6527 51.238 21.5588 50.6873 19.4123 49.9268Z" fill="white"/>
</svg>
